<mxfile host="app.diagrams.net" modified="2023-04-13T18:06:30.946Z" agent="Mozilla/5.0 (Windows NT 10.0; Win64; x64) AppleWebKit/537.36 (KHTML, like Gecko) Chrome/112.0.0.0 Safari/537.36 Edg/112.0.1722.39" etag="k9NW0AADiZBJHDrXHj1l" version="21.1.4" type="device">
  <diagram name="PÃ¡gina-1" id="xERGUGtqPbNV7SDfMrlj">
    <mxGraphModel dx="1029" dy="680" grid="1" gridSize="10" guides="1" tooltips="1" connect="1" arrows="1" fold="1" page="1" pageScale="1" pageWidth="827" pageHeight="800" math="0" shadow="0">
      <root>
        <mxCell id="0" />
        <mxCell id="1" parent="0" />
        <mxCell id="615-ZcFA2t-CcVMaTsA4-28" value="" style="rounded=0;whiteSpace=wrap;html=1;fillColor=#fff2cc;strokeColor=#d6b656;gradientColor=#ffd966;" vertex="1" parent="1">
          <mxGeometry x="19" y="10" width="790" height="770" as="geometry" />
        </mxCell>
        <mxCell id="615-ZcFA2t-CcVMaTsA4-17" value="" style="shape=image;imageAspect=0;aspect=fixed;verticalLabelPosition=bottom;verticalAlign=top;image=https://www.tutorialexample.com/wp-content/uploads/2022/01/how-to-compute-accuracy-precision-recall-and-f1-score-in-machine-learning.png;" vertex="1" parent="1">
          <mxGeometry x="60" y="590" width="272" height="186.75" as="geometry" />
        </mxCell>
        <mxCell id="615-ZcFA2t-CcVMaTsA4-4" value="" style="rounded=0;whiteSpace=wrap;html=1;dashed=1;" vertex="1" parent="1">
          <mxGeometry x="100" y="306" width="280" height="180" as="geometry" />
        </mxCell>
        <mxCell id="615-ZcFA2t-CcVMaTsA4-1" value="" style="sketch=0;points=[[0,0,0],[0.25,0,0],[0.5,0,0],[0.75,0,0],[1,0,0],[0,1,0],[0.25,1,0],[0.5,1,0],[0.75,1,0],[1,1,0],[0,0.25,0],[0,0.5,0],[0,0.75,0],[1,0.25,0],[1,0.5,0],[1,0.75,0]];outlineConnect=0;fontColor=#232F3E;gradientColor=#60A337;gradientDirection=north;fillColor=#277116;strokeColor=#ffffff;dashed=0;verticalLabelPosition=bottom;verticalAlign=top;align=center;html=1;fontSize=12;fontStyle=0;aspect=fixed;shape=mxgraph.aws4.resourceIcon;resIcon=mxgraph.aws4.s3;" vertex="1" parent="1">
          <mxGeometry x="262" y="120" width="78" height="78" as="geometry" />
        </mxCell>
        <mxCell id="615-ZcFA2t-CcVMaTsA4-2" value="" style="shape=image;imageAspect=0;aspect=fixed;verticalLabelPosition=bottom;verticalAlign=top;image=https://colab.research.google.com/img/colab_favicon_256px.png;" vertex="1" parent="1">
          <mxGeometry x="190" y="326" width="74" height="74" as="geometry" />
        </mxCell>
        <mxCell id="615-ZcFA2t-CcVMaTsA4-3" value="" style="shape=image;imageAspect=0;aspect=fixed;verticalLabelPosition=bottom;verticalAlign=top;image=https://cdn-images-1.medium.com/v2/resize:fit:1200/1*nPcdyVwgcuEZiEZiRqApug.jpeg;" vertex="1" parent="1">
          <mxGeometry x="152" y="386" width="170" height="95.79" as="geometry" />
        </mxCell>
        <mxCell id="615-ZcFA2t-CcVMaTsA4-5" value="" style="sketch=0;points=[[0,0,0],[0.25,0,0],[0.5,0,0],[0.75,0,0],[1,0,0],[0,1,0],[0.25,1,0],[0.5,1,0],[0.75,1,0],[1,1,0],[0,0.25,0],[0,0.5,0],[0,0.75,0],[1,0.25,0],[1,0.5,0],[1,0.75,0]];outlineConnect=0;fontColor=#232F3E;gradientColor=#60A337;gradientDirection=north;fillColor=#277116;strokeColor=#ffffff;dashed=0;verticalLabelPosition=bottom;verticalAlign=top;align=center;html=1;fontSize=12;fontStyle=0;aspect=fixed;shape=mxgraph.aws4.resourceIcon;resIcon=mxgraph.aws4.s3;" vertex="1" parent="1">
          <mxGeometry x="484" y="120" width="78" height="78" as="geometry" />
        </mxCell>
        <mxCell id="615-ZcFA2t-CcVMaTsA4-6" value="" style="rounded=0;whiteSpace=wrap;html=1;dashed=1;" vertex="1" parent="1">
          <mxGeometry x="450" y="306" width="280" height="180" as="geometry" />
        </mxCell>
        <mxCell id="615-ZcFA2t-CcVMaTsA4-7" value="" style="shape=image;imageAspect=0;aspect=fixed;verticalLabelPosition=bottom;verticalAlign=top;image=https://th.bing.com/th/id/OIP.5BUBfOIlXlQlmJmivHaPlgAAAA?pid=ImgDet&amp;rs=1;" vertex="1" parent="1">
          <mxGeometry x="562" y="339.21" width="56" height="56" as="geometry" />
        </mxCell>
        <mxCell id="615-ZcFA2t-CcVMaTsA4-9" value="" style="shape=image;imageAspect=0;aspect=fixed;verticalLabelPosition=bottom;verticalAlign=top;image=https://th.bing.com/th/id/R.6799c73f97c8e396fb588bc697d454bd?rik=01tOBUoQHhjN0g&amp;pid=ImgRaw&amp;r=0;" vertex="1" parent="1">
          <mxGeometry x="528" y="570" width="90" height="90" as="geometry" />
        </mxCell>
        <mxCell id="615-ZcFA2t-CcVMaTsA4-10" value="" style="endArrow=classic;html=1;rounded=0;exitX=0.5;exitY=1;exitDx=0;exitDy=0;exitPerimeter=0;entryX=0.5;entryY=0;entryDx=0;entryDy=0;" edge="1" parent="1" source="615-ZcFA2t-CcVMaTsA4-1" target="615-ZcFA2t-CcVMaTsA4-4">
          <mxGeometry width="50" height="50" relative="1" as="geometry">
            <mxPoint x="170" y="250" as="sourcePoint" />
            <mxPoint x="220" y="200" as="targetPoint" />
            <Array as="points">
              <mxPoint x="300" y="260" />
              <mxPoint x="240" y="260" />
            </Array>
          </mxGeometry>
        </mxCell>
        <mxCell id="615-ZcFA2t-CcVMaTsA4-11" value="" style="endArrow=classic;html=1;rounded=0;exitX=1.011;exitY=0.633;exitDx=0;exitDy=0;exitPerimeter=0;entryX=-0.011;entryY=0.633;entryDx=0;entryDy=0;entryPerimeter=0;" edge="1" parent="1">
          <mxGeometry width="50" height="50" relative="1" as="geometry">
            <mxPoint x="383.0799999999999" y="408.94000000000005" as="sourcePoint" />
            <mxPoint x="446.9200000000001" y="408.94000000000005" as="targetPoint" />
          </mxGeometry>
        </mxCell>
        <mxCell id="615-ZcFA2t-CcVMaTsA4-13" value="" style="shape=image;imageAspect=0;aspect=fixed;verticalLabelPosition=bottom;verticalAlign=top;image=https://th.bing.com/th/id/OIP.LMrNFkMkJ0o2ejdxP8r1CQHaHa?pid=ImgDet&amp;rs=1;" vertex="1" parent="1">
          <mxGeometry x="248" y="641.37" width="84" height="84" as="geometry" />
        </mxCell>
        <mxCell id="615-ZcFA2t-CcVMaTsA4-12" value="" style="endArrow=classic;html=1;rounded=0;exitX=1;exitY=0.5;exitDx=0;exitDy=0;entryX=1;entryY=0.5;entryDx=0;entryDy=0;entryPerimeter=0;" edge="1" parent="1" source="615-ZcFA2t-CcVMaTsA4-9" target="615-ZcFA2t-CcVMaTsA4-5">
          <mxGeometry width="50" height="50" relative="1" as="geometry">
            <mxPoint x="690" y="580" as="sourcePoint" />
            <mxPoint x="740" y="530" as="targetPoint" />
            <Array as="points">
              <mxPoint x="770" y="615" />
              <mxPoint x="770" y="160" />
            </Array>
          </mxGeometry>
        </mxCell>
        <mxCell id="615-ZcFA2t-CcVMaTsA4-18" value="" style="endArrow=classic;html=1;rounded=0;entryX=0.465;entryY=-0.02;entryDx=0;entryDy=0;entryPerimeter=0;" edge="1" parent="1" target="615-ZcFA2t-CcVMaTsA4-17">
          <mxGeometry width="50" height="50" relative="1" as="geometry">
            <mxPoint x="590" y="490" as="sourcePoint" />
            <mxPoint x="520" y="530" as="targetPoint" />
            <Array as="points">
              <mxPoint x="590" y="550" />
              <mxPoint x="320" y="550" />
              <mxPoint x="186" y="550" />
            </Array>
          </mxGeometry>
        </mxCell>
        <mxCell id="615-ZcFA2t-CcVMaTsA4-19" value="" style="endArrow=classic;html=1;rounded=0;entryX=0.5;entryY=1;entryDx=0;entryDy=0;" edge="1" parent="1" target="615-ZcFA2t-CcVMaTsA4-9">
          <mxGeometry width="50" height="50" relative="1" as="geometry">
            <mxPoint x="330" y="700" as="sourcePoint" />
            <mxPoint x="480" y="690" as="targetPoint" />
            <Array as="points">
              <mxPoint x="573" y="700" />
            </Array>
          </mxGeometry>
        </mxCell>
        <mxCell id="615-ZcFA2t-CcVMaTsA4-20" value="&lt;b style=&quot;&quot;&gt;Credit card fraud data stored in AWS S3 bucket&lt;/b&gt;" style="text;html=1;strokeColor=#6F0000;fillColor=#a20025;align=center;verticalAlign=middle;whiteSpace=wrap;rounded=0;fontColor=#ffffff;" vertex="1" parent="1">
          <mxGeometry x="212" y="80" width="168" height="30" as="geometry" />
        </mxCell>
        <mxCell id="615-ZcFA2t-CcVMaTsA4-21" value="&lt;b style=&quot;&quot;&gt;PySpark Random Forest Classifier&lt;/b&gt;" style="text;html=1;strokeColor=#6F0000;fillColor=#a20025;align=center;verticalAlign=middle;whiteSpace=wrap;rounded=0;fontColor=#ffffff;" vertex="1" parent="1">
          <mxGeometry x="510" y="410" width="168" height="30" as="geometry" />
        </mxCell>
        <mxCell id="615-ZcFA2t-CcVMaTsA4-23" value="&lt;b style=&quot;&quot;&gt;Classify if credit card transaction was fraudulent&lt;/b&gt;" style="text;html=1;strokeColor=#6F0000;fillColor=#a20025;align=center;verticalAlign=middle;whiteSpace=wrap;rounded=0;fontColor=#ffffff;" vertex="1" parent="1">
          <mxGeometry x="506" y="260" width="168" height="30" as="geometry" />
        </mxCell>
        <mxCell id="615-ZcFA2t-CcVMaTsA4-24" value="&lt;b&gt;Read data and store in PySpark dataframe&lt;/b&gt;" style="text;html=1;strokeColor=#6F0000;fillColor=#a20025;align=center;verticalAlign=middle;whiteSpace=wrap;rounded=0;fontColor=#ffffff;" vertex="1" parent="1">
          <mxGeometry x="44" y="260" width="168" height="30" as="geometry" />
        </mxCell>
        <mxCell id="615-ZcFA2t-CcVMaTsA4-25" value="&lt;b style=&quot;&quot;&gt;Perform statistical assessments&lt;/b&gt;" style="text;html=1;strokeColor=#6F0000;fillColor=#a20025;align=center;verticalAlign=middle;whiteSpace=wrap;rounded=0;fontColor=#ffffff;" vertex="1" parent="1">
          <mxGeometry x="100" y="510" width="168" height="30" as="geometry" />
        </mxCell>
        <mxCell id="615-ZcFA2t-CcVMaTsA4-26" value="&lt;b style=&quot;&quot;&gt;Export the results as .CSV reports&lt;/b&gt;" style="text;html=1;strokeColor=#6F0000;fillColor=#a20025;align=center;verticalAlign=middle;whiteSpace=wrap;rounded=0;fontColor=#ffffff;" vertex="1" parent="1">
          <mxGeometry x="380" y="720" width="168" height="30" as="geometry" />
        </mxCell>
        <mxCell id="615-ZcFA2t-CcVMaTsA4-27" value="&lt;b style=&quot;&quot;&gt;Load the reports in S3 bucket&lt;/b&gt;" style="text;html=1;strokeColor=#6F0000;fillColor=#a20025;align=center;verticalAlign=middle;whiteSpace=wrap;rounded=0;fontColor=#ffffff;" vertex="1" parent="1">
          <mxGeometry x="590" y="108" width="168" height="40" as="geometry" />
        </mxCell>
      </root>
    </mxGraphModel>
  </diagram>
</mxfile>
